<?xml version="1.0" encoding="utf-8"?>
<!-- Generator: Adobe Illustrator 27.8.0, SVG Export Plug-In . SVG Version: 6.00 Build 0)  -->
<svg version="1.1" xmlns="http://www.w3.org/2000/svg" xmlns:xlink="http://www.w3.org/1999/xlink" x="0px" y="0px"
	 viewBox="0 0 1920 1080" style="enable-background:new 0 0 1920 1080;" xml:space="preserve">
<style type="text/css">
	.st0{display:none;}
	.st1{display:inline;opacity:0.5;}
	.st2{fill:#D91F2C;}
	.st3{fill:#122C43;}
	.st4{fill:#FFFFFF;}
</style>
<g id="OUD" class="st0">
	<g class="st1">
		<g>
			<defs>
				<rect id="SVGID_1_" x="423.9" y="351" width="1074.1" height="375.9"/>
			</defs>
			<clipPath id="SVGID_00000044136659059157680400000018420155310269300409_">
				<use xlink:href="#SVGID_1_"  style="overflow:visible;"/>
			</clipPath>
			<g style="clip-path:url(#SVGID_00000044136659059157680400000018420155310269300409_);">
				
					<image style="overflow:visible;" width="4583" height="1604" xlink:href="AEABAE23C5730BB6.png"  transform="matrix(0.2344 0 0 0.2344 423.8572 351)">
				</image>
			</g>
		</g>
	</g>
</g>
<g id="Laag_1">
	<g>
		<path class="st2" d="M649.3,636.5H486.6c-34,0-61.6-27.6-61.6-61.6V412.2c0-34,27.6-61.6,61.6-61.6h162.7
			c34,0,61.6,27.6,61.6,61.6v162.7C711,608.9,683.4,636.5,649.3,636.5z"/>
	</g>
	<g>
		<path class="st3" d="M847.9,555.4h-22v81.2h-71.4V350.7h101.5c69.7,0,100.7,39.5,100.7,94.6C956.8,511.3,909.9,555.4,847.9,555.4z
			 M847.9,404.5h-22v97h21.6c29.4,0,39.5-24.5,39.5-51.4C887.1,428.1,880.2,404.5,847.9,404.5z"/>
		<path class="st3" d="M1153.2,639.8c-7.3,0.4-19.9,0.4-25.6,0.4c-37.5,0-51-8.6-57.9-23.6c-15.9,16.3-31.4,23.6-55.5,23.6
			c-33.4,0-57.9-23.6-57.9-62.4c0-28.9,15.9-48.5,110.9-55.9V504c0-12.6-4.9-16.7-15.1-16.7c-20,0-42.4,8.6-63.2,22l-25.7-40.8
			c31.4-22,63.2-33,106.8-33c49.7,0,66.5,24.5,66.5,63.2V581c0,3.6,8.3,5.2,16.6,7.2L1153.2,639.8z M1021.6,575.7
			c0,12.2,6.9,20.8,18.3,20.8c11.8,0,21.6-5.3,27.3-10.6v-29.8C1025.2,559.8,1021.6,564.3,1021.6,575.7z"/>
		<path class="st3" d="M1166.6,678.9c25.2-4.4,33.6-11.7,37.9-22.9l6.4-16.1c0.9-2.2,0.9-4.7,0.1-7l-66.9-192.2h69.7l31,100.7
			c2.4,8.2,3.7,15.9,3.7,21.2c0-5.3,1.2-13.5,3.7-21.2l32.6-100.7h61.2L1256.7,676c-13.5,35.9-38.7,51-90.1,53.4L1166.6,678.9z"/>
		<path class="st3" d="M1484,632.8c-13.7,4.5-32.3,7.4-55.5,7.4c-37.9,0-57.9-14.7-57.9-53.4v-99.9l-28.8,0l16.7-46.1h14.2l6.9-58.3
			l60.8,0.1v58.2h43.6v46.1h-44v97c0,4.9,2,5.7,7.7,5.7c8.6,0,26.1-1.6,36.3-5.3L1484,632.8z"/>
	</g>
	<g>
		<path class="st4" d="M548.1,595.1c-6.5,0-12.6-3.1-16.3-8.5l-60.1-85.1c-6.4-9-4.2-21.5,4.8-27.9c9-6.4,21.5-4.2,27.9,4.8
			l42.9,60.7L634.5,402c5.9-9.3,18.3-12.1,27.6-6.1c9.3,5.9,12.1,18.3,6.1,27.6L564.9,585.8c-3.6,5.6-9.7,9.1-16.4,9.3
			C548.4,595.1,548.2,595.1,548.1,595.1z"/>
	</g>
</g>
</svg>
